<?xml version="1.0" encoding="UTF-8" standalone="no"?>
<svg xmlns:dc="http://purl.org/dc/elements/1.1/" xmlns:cc="http://creativecommons.org/ns#" xmlns:rdf="http://www.w3.org/1999/02/22-rdf-syntax-ns#" xmlns:svg="http://www.w3.org/2000/svg" xmlns="http://www.w3.org/2000/svg" xmlns:sodipodi="http://sodipodi.sourceforge.net/DTD/sodipodi-0.dtd" xmlns:inkscape="http://www.inkscape.org/namespaces/inkscape" version="1.1" id="svg2" xml:space="preserve" width="1056" height="816" viewBox="0 0 1056 816" sodipodi:docname="dac_logo_new-2018.svg" inkscape:version="1.0.2-2 (e86c870879, 2021-01-15)">
  <metadata id="metadata8">
    <rdf:RDF>
      <cc:Work rdf:about="">
        <dc:format>image/svg+xml</dc:format>
        <dc:type rdf:resource="http://purl.org/dc/dcmitype/StillImage" />
        <dc:title></dc:title>
      </cc:Work>
    </rdf:RDF>
  </metadata>
  <defs id="defs6">
    <clipPath clipPathUnits="userSpaceOnUse" id="clipPath18">
      <path d="M 0,612 H 792 V 0 H 0 Z" id="path16" />
    </clipPath>
    <clipPath clipPathUnits="userSpaceOnUse" id="clipPath50">
      <path d="M 0,612 H 792 V 0 H 0 Z" id="path48" />
    </clipPath>
  </defs>
  <sodipodi:namedview pagecolor="#ffffff" bordercolor="#666666" borderopacity="1" objecttolerance="10" gridtolerance="10" guidetolerance="10" inkscape:pageopacity="0" inkscape:pageshadow="2" inkscape:window-width="1549" inkscape:window-height="948" id="namedview4" showgrid="false" inkscape:zoom="1.0416667" inkscape:cx="528" inkscape:cy="408" inkscape:window-x="0" inkscape:window-y="0" inkscape:window-maximized="0" inkscape:current-layer="g10" />
  <g id="g10" inkscape:groupmode="layer" inkscape:label="dac_logo_new-2018" transform="matrix(1.3333333,0,0,-1.3333333,0,816)">
    <g id="g12">
      <g id="g14" clip-path="url(#clipPath18)">
        <g id="g20" transform="translate(204.3335,138.333)">
          <path d="M 0,0 C 0,0 -38.333,24.334 -47.667,59.334 -57,94.334 -53.333,101 -53.333,101 h 3 c 0,0 -9.667,23.667 -8.667,40 0,0 -21,10.334 -23.667,29.333 0,0 10,-5.666 14.334,0 C -64,176 -75.667,182 -75.667,182 c 0,0 9.667,5 15,6 0,0 -7,24.333 -1.333,52 0,0 4,19 8.667,26.333 4.666,7.334 6,18.667 7,20 1,1.334 6,7 9,0 3,-7 2.333,-5.666 2.333,-5.666 0,0 3.333,40.666 30,65.333 l -4,28.667 c 0,0 16.667,-0.334 23.667,-1.334 0,0 18.666,26 47.333,40.334 28.667,14.333 46.333,14.666 46.333,14.666 0,0 3.667,0.667 3.667,-4.666 0,0 19.667,8.333 33.667,9.666 14,1.334 21.666,1.334 36.333,0 0,0 7,6.667 9.667,13.667 2.666,7 2.333,11.637 2.333,11.637 0,0 15.667,-11.97 22,-23.637 0,0 41,1 69.333,-14.333 0,0 -5.666,9 -2.333,11.333 3.333,2.333 25.333,0 49,-14.667 23.667,-14.666 35,-29 35,-29 0,0 9.333,2 11.333,-8 0,0 3,-3 6.667,0.667 3.667,3.667 6.333,7.333 8,5.667 1.667,-1.667 7.333,-4.667 7.333,-28.334 l 1.334,-9 3.666,1 c 0,0 5.667,-3.333 4.334,-11.666 0,0 7,2.666 8,4.666 0,0 8.333,-12.333 5.333,-27.333 0,0 12.333,-16 14.667,-24.333 0,0 2.333,6.666 8.333,-2.667 6,-9.333 29.333,-50.667 19.667,-97.333 l -1.334,-2.334 c 0,0 15.334,-13 21,-16 l 3.334,-2 c 0,0 -8.667,-7.999 -19,-12.333 0,0 2,-28 -7,-47.666 0,0 2.333,1.666 1.666,-12.334 -0.666,-14 -10,-53.333 -21.666,-69.333 C 431,13.667 412.333,6.334 412.333,6.334 l -1.666,-4 c 0,0 15,-18.667 2.333,-31.667 -12.667,-13 -27.667,-6 -29,-5.667 -1.333,0.334 -7.667,-11.333 -24,-15 0,0 -18.333,-30 -54.333,-36 -36,-6 -44.334,3.667 -44.334,3.667 0,0 -1,-5 -3,-8.667 -2,-3.666 -2,-7.666 -0.666,-9.333 1.333,-1.667 0.666,-12.333 -6.334,-11.667 -7,0.667 -28.666,16 -28.666,16 0,0 -6.932,-15 -23.466,-25.666 0,0 2.799,19.666 -3.201,24.666 0,0 -25,-13.333 -28.667,-12.666 -3.666,0.666 -11,1 -11.333,9.666 -0.333,8.667 -2.667,10 -2.667,10 0,0 -32.333,-8.666 -52.333,1.334 -20,10 -30.667,16.666 -30.667,16.666 0,0 -17.666,12.334 -19,15.667 C 50,-53 53.667,-50 53.667,-50 l -27,17 -17,-13 c 0,0 -7.851,-2.242 -15.323,10.756 -1.281,2.228 -1.007,5.032 0.709,6.947 l 11.614,12.964 z" style="fill:#caa42c;fill-opacity:1;fill-rule:nonzero;stroke:none" id="path22" />
        </g>
        <g id="g24" transform="translate(485.0146,305.2842)">
          <path d="m 0,0 c 0,-43.75 -35.466,-79.216 -79.216,-79.216 -43.749,0 -79.215,35.466 -79.215,79.216 0,43.75 35.466,79.216 79.215,79.216 C -35.466,79.216 0,43.75 0,0" style="fill:#231f20;fill-opacity:1;fill-rule:nonzero;stroke:none" id="path26" />
        </g>
        <g id="g28" transform="translate(409.5,395)">
          <path d="m 0,0 h -8.826 c 0,0 -2.079,14.5 -10.127,21.5 -8.047,7 -15.432,12.216 -21.547,25 0,0 18.594,-11 21.547,0 2.953,11 -8.047,27 -13.547,34 -5.5,7 -18.5,21.5 -10,39.5 0,0 4.385,-24 20.692,-25 16.308,-1 8.308,29.5 8.308,29.5 0,0 -8.906,20 -5.453,29 3.453,9 13.521,18.333 12.987,23.167 0,0 10.466,-14.167 14.466,-22.167 4,-8 6.5,-22.5 8.5,-28.5 2,-6 5.5,-5.5 7.5,-5 2,0.5 7,2.5 6.5,8 0,0 6,-8.5 -3,-24.5 C 19,88.5 7.625,80 10.563,70 10.563,70 10.5,54.927 21.5,52.464 32.5,50 32.959,56 32.959,56 32.959,56 38.5,51 20.5,31.5 20.5,31.5 8.5,22 4,13.5 -0.5,5 0,0 0,0" style="fill:#c02025;fill-opacity:1;fill-rule:nonzero;stroke:none" id="path30" />
        </g>
        <g id="g32" transform="translate(493.5,310)">
          <path d="m 0,0 c 0,0 -1,-15 13,-20 14,-5 22.5,-8 22.5,-8 0,0 -1.5,13.167 11,15.333 12.5,2.167 26,-4.833 26,-4.833 0,0 19.5,-20.5 41,-20.5 21.5,0 24.5,3 24.5,3 0,0 -13.5,7.5 -7.5,16 0,0 0.5,2.167 15.5,6.333 C 161,-8.5 178,0 178,0 c 0,0 -10.5,5.5 -15,8 -4.5,2.5 -8.5,7.688 -27,3.594 C 117.5,7.5 120.5,3 111.5,8.5 c -9,5.5 -4,18.5 -4,18.5 l 4.5,4 c 0,0 -12,2 -28,-9 C 68,11 62,8 58.5,8 55,8 44.5,9.5 42,18 39.5,26.5 46.5,31.142 46.5,31.142 46.5,31.142 30.5,27.5 24,15 17.5,2.5 8.689,-0.957 0,0" style="fill:#c02025;fill-opacity:1;fill-rule:nonzero;stroke:none" id="path34" />
        </g>
        <g id="g36" transform="translate(317,310)">
          <path d="M 0,0 C 0,0 4.5,-18.254 -3.5,-24.877 -11.5,-31.5 -20,-34.5 -20,-34.5 c 0,0 5.5,20.5 -10.5,17.25 0,0 -6.5,-0.504 -16,-7.627 C -56,-32 -79.821,-40.178 -98,-37 c 0,0 15,7.795 9,18.147 -6,10.353 -17.5,7.186 -17.5,7.186 0,0 -10,-2.833 -29.5,-9.333 -19.5,-6.5 -33.167,5.5 -37.333,11 0,0 12.333,-0.932 18.333,6.284 6,7.216 -11,13.216 -11,13.216 0,0 25,2.5 37.5,-2.5 0,0 17,-1.5 17,12.5 0,0 -2.833,8 -6.167,9 0,0 17.167,1.5 35.667,-12 18.5,-13.5 32.107,0 32.107,0 0,0 6.107,11 0,17.5 0,0 14.653,-5 24.523,-19 C -15.5,1 0,0 0,0" style="fill:#c02025;fill-opacity:1;fill-rule:nonzero;stroke:none" id="path38" />
        </g>
        <g id="g40" transform="translate(375,168.833)">
          <path d="m 0,0 c 4.5,4.334 16,5.667 21,-1.833 5,-7.5 -5.453,-24 -5.453,-24 -6.953,-7.5 -15.547,-27 -15.547,-27 6.5,8 23,12.667 23,12.667 0,0 -3.5,-5.667 -11,-24.167 -7.5,-18.5 0,-41 0,-41 1.5,6 9,6 9,6 13.5,-0.5 15.5,-27.167 15.5,-27.167 11.5,14.334 8.563,25.667 8.563,25.667 0,0 -3.563,16 5.937,26.5 9.5,10.5 20,-5 20,-5 4.5,20 -8,38.5 -17,51.5 -9,13 -12.413,25.5 -12.413,25.5 -1.913,18.5 15.913,17.5 15.913,17.5 -1.449,12.181 -13,22 -16,23.5 -3,1.5 -6.5,7.5 -6.5,7.5 h -9.326 c 0,0 -6.007,-10.199 -12.007,-17.433 C 7.667,21.5 -1,13.167 -2,5.834 -3,-1.5 -3.667,-3.558 -3.667,-3.558 Z" style="fill:#c02025;fill-opacity:1;fill-rule:nonzero;stroke:none" id="path42" />
        </g>
      </g>
    </g>
    <g id="g44">
      <g id="g46" clip-path="url(#clipPath50)">
        <g id="g52" transform="translate(204.3335,138.333)">
          <path d="M 0,0 C 0,0 -38.333,24.334 -47.667,59.334 -57,94.334 -53.333,101 -53.333,101 h 3 c 0,0 -9.667,23.667 -8.667,40 0,0 -21,10.334 -23.667,29.333 0,0 10,-5.666 14.334,0 C -64,176 -75.667,182 -75.667,182 c 0,0 9.667,5 15,6 0,0 -7,24.333 -1.333,52 0,0 4.937,18.081 7.667,26.333 3,9.069 7,18.667 8,20 1,1.334 6,7 9,0 3,-7 2.333,-5.666 2.333,-5.666 0,0 3.333,40.666 30,65.333 l -4,28.667 c 0,0 16.667,-0.334 23.667,-1.334 0,0 18.666,26 47.333,40.334 28.667,14.333 46.333,14.666 46.333,14.666 0,0 3.667,0.667 3.667,-4.666 0,0 19.667,8.333 33.667,9.666 14,1.334 21.666,1.334 36.333,0 0,0 7,6.667 9.667,13.667 2.666,7 2.333,11.637 2.333,11.637 0,0 15.667,-11.97 22,-23.637 0,0 41,1 69.333,-14.333 0,0 -5.666,9 -2.333,11.333 3.333,2.333 25.333,0 49,-14.667 23.667,-14.666 35,-29 35,-29 0,0 9.333,2 11.333,-8 0,0 3,-3 6.667,0.667 3.667,3.667 6.333,7.333 8,5.667 1.667,-1.667 7.333,-4.667 7.333,-28.334 l 1.334,-9 3.666,1 c 0,0 5.667,-3.333 4.334,-11.666 0,0 6.073,2.313 7.713,4.247 0.161,0.189 0.449,0.171 0.578,-0.04 1.45,-2.367 7.703,-13.572 5.042,-26.874 0,0 12.333,-16 14.667,-24.333 0,0 2.333,6.666 8.333,-2.667 6,-9.333 29.333,-50.667 19.667,-97.333 l -1.334,-2.334 c 0,0 15.334,-13 21,-16 l 3.334,-2 c 0,0 -8.667,-7.999 -19,-12.333 0,0 2,-28 -7,-47.666 0,0 2.333,1.666 1.666,-12.334 -0.666,-14 -10,-53.333 -21.666,-69.333 C 431,13.667 412.333,6.334 412.333,6.334 l -1.666,-4 c 0,0 15,-18.667 2.333,-31.667 -12.667,-13 -27.667,-6 -29,-5.667 -1.333,0.334 -7.667,-11.333 -24,-15 0,0 -18.333,-30 -54.333,-36 -25.934,-4.322 -37.51,-0.514 -41.957,1.953 -1.214,0.675 -2.749,0.041 -3.141,-1.292 -0.5,-1.701 -1.245,-3.845 -2.236,-5.661 -2,-3.666 -2,-7.666 -0.666,-9.333 1.333,-1.667 0.666,-12.333 -6.334,-11.667 -7,0.667 -28.666,16 -28.666,16 0,0 -6.932,-15 -23.466,-25.666 0,0 2.799,19.666 -3.201,24.666 0,0 -25,-13.333 -28.667,-12.666 -3.666,0.666 -11,1 -11.333,9.666 -0.333,8.667 -2.667,10 -2.667,10 0,0 -32.333,-8.666 -52.333,1.334 -20,10 -30.667,16.666 -30.667,16.666 0,0 -17.666,12.334 -19,15.667 C 50,-53 53.667,-50 53.667,-50 l -27,17 -17,-13 c 0,0 -7.851,-2.242 -15.323,10.756 -1.281,2.228 -1.007,5.032 0.709,6.947 l 11.614,12.964 z" style="fill:none;stroke:#000000;stroke-width:4;stroke-linecap:round;stroke-linejoin:miter;stroke-miterlimit:10;stroke-dasharray:none;stroke-opacity:1" id="path54" />
        </g>
        <g id="g56" transform="translate(485.0146,305.2842)">
          <path d="m 0,0 c 0,-43.75 -35.466,-79.216 -79.216,-79.216 -43.749,0 -79.215,35.466 -79.215,79.216 0,43.75 35.466,79.216 79.215,79.216 C -35.466,79.216 0,43.75 0,0 Z" style="fill:none;stroke:#000000;stroke-width:4;stroke-linecap:round;stroke-linejoin:miter;stroke-miterlimit:10;stroke-dasharray:none;stroke-opacity:1" id="path58" />
        </g>
        <g id="g60" transform="translate(674,297.333)">
          <path d="m 0,0 c -2,-6.166 -21,-6.333 -26,-7.333 -5,-1 -8,-4 -6,-7.5 2,-3.5 20,1 20,1 -17.246,-16.395 -40,-22.5 -54.5,-22 -14.5,0.5 -41.5,16.664 -41.5,16.664 0,0 -13,9.836 -21.636,8.836 -8.635,-1 -6.864,-15 -6.864,-15 -10.5,-1.5 -42.802,12.835 -42.802,12.835 -7.969,-34.787 -35.832,-61.988 -70.976,-68.991 0,0 24.278,-10.344 21.778,-40.844 0,0 -15,2.5 -13.5,-11.5 1.5,-14 14,-29 17.5,-35.5 3.5,-6.5 18.595,-39.487 -5.5,-68 0,0 1,27 -8,22.5 0,0 -7.5,-5.5 -6.5,-14.5 1,-9 -2.5,-25.667 -2.5,-25.667" style="fill:none;stroke:#000000;stroke-width:4;stroke-linecap:round;stroke-linejoin:miter;stroke-miterlimit:10;stroke-dasharray:none;stroke-opacity:1" id="path62" />
        </g>
        <g id="g64" transform="translate(386.3335,571.6665)">
          <path d="m 0,0 c -14.167,-18.833 -5.333,-36.667 -5.333,-36.667 0,0 11.5,-21.5 0.5,-22.5 -11,-1 -13,22.5 -13,22.5 -5.5,-3 -10,-15 -10,-15 -7.5,-18.5 7.5,-46.5 7.5,-46.5 0,0 14,-19 5,-21.5 -9,-2.5 -11.5,9 -11.5,9 0,0 -4,-7.5 1,-25 5,-17.5 30.047,-40.784 30.047,-40.784 -37.668,-6.342 -67.496,-35.775 -74.425,-73.239 0,0 -9.122,2.523 -15.622,10.023 -6.5,7.5 -25.5,25 -58,22 0,0 19.5,-12 9,-16.5 -10.5,-4.5 -23.5,3 -23.5,3 0,0 -24.5,14 -53,-0.5 0,0 19,-1 15,-10 -4,-9 -21,-3 -21,-3 0,0 -15.295,2.951 -25.334,-0.666" style="fill:none;stroke:#000000;stroke-width:4;stroke-linecap:round;stroke-linejoin:miter;stroke-miterlimit:10;stroke-dasharray:none;stroke-opacity:1" id="path66" />
        </g>
        <g id="g68" transform="translate(420.333,573.3335)">
          <path d="m 0,0 c 0,0 3.667,-11.833 7.667,-26.333 4,-14.5 13.5,-7.5 13.5,-7.5 0,0 4.5,3 4.5,7 0,0 11,-20 3,-42 -8,-22 -23.5,-28.5 -10.5,-38 13,-9.5 20.71,10 20.71,10 0,0 5.79,-27.5 -12.21,-48.5 0,0 -7,-9.5 -16,-17 -9,-7.5 -10.938,-15.625 -10.938,-15.625 38.262,-6.009 68.627,-35.807 75.484,-73.781 0,0 3.454,-0.094 5.954,3.406 2.5,3.5 24,24 33.5,28 9.5,4 23,2 23,2 0,0 -11,-13.5 -4,-17.5 7,-4 12.5,1.5 18.5,4 6,2.5 32,24 61,2 0,0 -21,-4 -18,-11 3,-7 10.5,-6.5 18,-3 7.5,3.5 24.333,10.833 35.167,-1.834" style="fill:none;stroke:#000000;stroke-width:4;stroke-linecap:round;stroke-linejoin:miter;stroke-miterlimit:10;stroke-dasharray:none;stroke-opacity:1" id="path70" />
        </g>
        <g id="g72" transform="translate(145.3335,279.333)">
          <path d="m 0,0 c 0,0 13.167,-7.506 36.667,-1.169 23.5,6.336 21.5,7.336 27.5,4.336 6,-3 1.5,-6.756 -5,-6.878 -6.5,-0.122 -25.676,-6.622 -25.676,-6.622 0,0 25.176,-5.5 28.676,-8 3.5,-2.5 29,-10.5 50,2.5 21,13 23.5,13 28,12.5 4.5,-0.5 3.5,-7.5 -4,-12 -7.5,-4.5 -10,-5 -10,-5 0,0 16.823,-6.204 32.5,5 15.676,11.204 14.698,14.164 14.698,14.164 9.602,-30.872 35.166,-54.712 67.039,-61.867 0,0 0.763,-5.297 -6.237,-11.797 -7,-6.5 -20.5,-19 -16.5,-40 4,-21 4.5,-16 4.5,-16 0,0 10.5,11.5 14,5 3.5,-6.5 -4,-7 -10,-22 -6,-15 -8.5,-22 -4.5,-33 l 11,9 c 0,0 -6.5,-23 -3,-42 3.5,-19 10.761,-23.167 10.761,-23.167 0,0 1.239,14.167 10.239,8.667 0,0 6.166,-5.333 4.333,-9.667" style="fill:none;stroke:#000000;stroke-width:4;stroke-linecap:round;stroke-linejoin:miter;stroke-miterlimit:10;stroke-dasharray:none;stroke-opacity:1" id="path74" />
        </g>
        <g id="g76" transform="translate(364.2598,386.4951)">
          <path d="m 0,0 -121.26,110.005 c 0,0 -12.453,14.256 -24,15.166" style="fill:none;stroke:#000000;stroke-width:4;stroke-linecap:round;stroke-linejoin:miter;stroke-miterlimit:10;stroke-dasharray:none;stroke-opacity:1" id="path78" />
        </g>
        <g id="g80" transform="translate(328.186,353.1963)">
          <path d="m 0,0 -101.186,100.304 c 0,0 -24.334,25.666 -27.667,30.833" style="fill:none;stroke:#000000;stroke-width:4;stroke-linecap:round;stroke-linejoin:miter;stroke-miterlimit:10;stroke-dasharray:none;stroke-opacity:1" id="path82" />
        </g>
        <g id="g84" transform="translate(409.5,395)">
          <path d="m 0,0 h -8.826 c 0,0 -2.079,14.5 -10.127,21.5 -8.047,7 -15.432,12.216 -21.547,25 0,0 18.594,-11 21.547,0 2.953,11 -8.047,27 -13.547,34 -5.5,7 -18.5,21.5 -10,39.5 0,0 4.385,-24 20.692,-25 16.308,-1 8.308,29.5 8.308,29.5 0,0 -8.906,20 -5.453,29 3.453,9 13.521,18.333 12.987,23.167 0,0 10.466,-14.167 14.466,-22.167 4,-8 6.5,-22.5 8.5,-28.5 2,-6 5.5,-5.5 7.5,-5 2,0.5 7,2.5 6.5,8 0,0 6,-8.5 -3,-24.5 C 19,88.5 7.625,80 10.563,70 10.563,70 10.5,54.927 21.5,52.464 32.5,50 32.959,56 32.959,56 32.959,56 38.5,51 20.5,31.5 20.5,31.5 8.5,22 4,13.5 -0.5,5 0,0 0,0 Z" style="fill:none;stroke:#000000;stroke-width:4;stroke-linecap:round;stroke-linejoin:miter;stroke-miterlimit:10;stroke-dasharray:none;stroke-opacity:1" id="path86" />
        </g>
        <g id="g88" transform="translate(540,341.1421)">
          <path d="M 0,0 H 0.005 Z M 63.092,0 C 58.815,0 49.233,-1.075 37.5,-9.142 c -16,-11 -22,-14 -25.5,-14 -3.5,0 -14,1.5 -16.5,10 C -7,-4.642 0,0 0,0 c 0,0 -16,-3.642 -22.5,-16.142 -5.831,-11.214 -13.523,-15.15 -21.318,-15.15 -0.894,0 -1.788,0.052 -2.682,0.15 0,0 -1,-15 13,-20 14,-5 22.5,-8 22.5,-8 0,0 -1.5,13.167 11,15.333 1.675,0.291 3.369,0.416 5.045,0.416 10.832,0 20.955,-5.249 20.955,-5.249 0,0 19.5,-20.5 41,-20.5 21.5,0 24.5,3 24.5,3 0,0 -13.5,7.5 -7.5,16 0,0 0.5,2.167 15.5,6.333 15,4.167 32,12.667 32,12.667 0,0 -10.5,5.5 -15,8 -3.302,1.834 -6.336,5.116 -15.024,5.116 -3.154,0 -7.049,-0.432 -11.976,-1.522 -12.348,-2.732 -15.118,-5.646 -18.271,-5.646 -1.571,0 -3.236,0.723 -6.229,2.552 -9,5.5 -4,18.5 -4,18.5 l 4.5,4 c 0,0 -0.854,0.142 -2.408,0.142 m -6.516,-4.79 c -1.787,-6.308 -2.018,-16.158 6.338,-21.265 3.253,-1.988 5.656,-3.139 8.315,-3.139 2.137,0 3.892,0.727 6.114,1.648 2.645,1.096 6.268,2.598 13.021,4.092 4.282,0.948 8.02,1.428 11.112,1.428 5.861,0 8.455,-1.682 10.963,-3.308 0.676,-0.438 1.374,-0.892 2.119,-1.305 1.987,-1.104 5.087,-2.763 7.961,-4.289 -6.222,-2.783 -15.54,-6.652 -24.089,-9.027 -13.595,-3.776 -16.964,-6.285 -17.974,-8.286 -1.817,-2.775 -2.406,-5.849 -1.705,-8.923 0.64,-2.798 2.272,-5.228 4.086,-7.182 -3.372,-0.434 -8.411,-0.796 -15.837,-0.796 -19.492,0 -37.92,19.066 -38.102,19.257 l -0.461,0.485 -0.595,0.309 c -0.449,0.232 -11.124,5.698 -22.797,5.698 -1.983,0 -3.91,-0.159 -5.729,-0.475 -9.204,-1.595 -12.9,-8.046 -14.007,-13.723 -3.89,1.379 -9.888,3.51 -17.463,6.216 -7.052,2.518 -9.325,8.263 -10.042,12.134 7.083,0.445 16.347,3.99 23.245,17.254 2.355,4.529 6.268,7.747 10,9.953 -0.197,-1.904 -0.047,-3.992 0.613,-6.237 2.995,-10.181 14.613,-12.871 20.338,-12.871 4.23,0 9.687,2.274 27.766,14.704 6.616,4.548 12.464,6.674 16.81,7.648" style="fill:#000000;fill-opacity:1;fill-rule:nonzero;stroke:none" id="path90" />
        </g>
        <g id="g92" transform="translate(317,309)">
          <path d="M 0,0 C 0,0 4.5,-18.254 -3.5,-24.877 -11.5,-31.5 -20,-34.5 -20,-34.5 c 0,0 5.5,20.5 -10.5,17.25 0,0 -6.5,-0.504 -16,-7.627 C -56,-32 -79.821,-40.178 -98,-37 c 0,0 15,7.795 9,18.147 -6,10.353 -17.5,7.186 -17.5,7.186 0,0 -10,-2.833 -29.5,-9.333 -19.5,-6.5 -33.167,5.5 -37.333,11 0,0 12.333,-0.932 18.333,6.284 6,7.216 -11,13.216 -11,13.216 0,0 25,2.5 37.5,-2.5 0,0 17,-1.5 17,12.5 0,0 -2.833,8 -6.167,9 0,0 17.167,1.5 35.667,-12 18.5,-13.5 32.107,0 32.107,0 0,0 6.107,11 0,17.5 0,0 14.653,-5 24.523,-19 C -15.5,1 0,0 0,0 Z" style="fill:none;stroke:#000000;stroke-width:4;stroke-linecap:round;stroke-linejoin:miter;stroke-miterlimit:10;stroke-dasharray:none;stroke-opacity:1" id="path94" />
        </g>
        <g id="g96" transform="translate(342.5151,370.9497)">
          <path d="M 0,0 -147.182,142.05" style="fill:none;stroke:#000000;stroke-width:4;stroke-linecap:round;stroke-linejoin:miter;stroke-miterlimit:10;stroke-dasharray:none;stroke-opacity:1" id="path98" />
        </g>
        <g id="g100" transform="translate(410,215)">
          <path d="m 0,0 h -9.326 c 0,0 -6.007,-10.199 -12.007,-17.433 -6,-7.234 -14.667,-15.567 -15.667,-22.9 -1,-7.334 -1.667,-9.392 -1.667,-9.392 l 3.667,3.558 c 2.202,2.121 6.081,3.523 10.054,3.523 4.145,0 8.393,-1.526 10.946,-5.356 5,-7.5 -5.453,-24 -5.453,-24 C -26.406,-79.5 -35,-99 -35,-99 c 6.5,8 23,12.667 23,12.667 0,0 -3.5,-5.667 -11,-24.167 -7.5,-18.5 0,-41 0,-41 1.5,6 9,6 9,6 13.5,-0.5 15.5,-27.167 15.5,-27.167 11.5,14.334 8.563,25.667 8.563,25.667 0,0 -3.563,16 5.937,26.5 2.403,2.656 4.871,3.648 7.217,3.648 6.925,0 12.783,-8.648 12.783,-8.648 4.5,20 -8,38.5 -17,51.5 C 10,-61 6.587,-48.5 6.587,-48.5 4.86,-31.806 19.209,-30.99 22.025,-30.99 22.33,-30.99 22.5,-31 22.5,-31 21.051,-18.819 9.5,-9 6.5,-7.5 3.5,-6 0,0 0,0 m -2.212,-4 c 1.559,-2.335 4.149,-5.69 6.923,-7.078 1.858,-0.929 9.974,-7.641 12.893,-16.346 -3.289,-0.625 -7.542,-2.123 -10.745,-5.674 -3.504,-3.885 -4.934,-9.206 -4.251,-15.813 l 0.034,-0.326 0.087,-0.317 c 0.146,-0.537 3.7,-13.314 12.982,-26.723 7.001,-10.113 17.06,-24.642 17.227,-40.275 -2.656,2.019 -5.99,3.7 -9.721,3.7 -2.596,0 -6.47,-0.861 -10.183,-4.964 -10.764,-11.898 -7.04,-29.318 -6.876,-30.053 l -0.012,0.024 0.033,-0.113 c 0.069,-0.298 1.258,-5.753 -2.459,-13.75 -2.217,8.819 -7.08,19.816 -17.572,20.205 l -0.074,0.003 H -14 c -1.891,0 -4.518,-0.437 -6.937,-1.676 -1.485,7.682 -2.758,20.315 1.644,31.173 7.201,17.764 10.668,23.522 10.696,23.567 l 5.405,8.75 -9.896,-2.798 c -0.393,-0.112 -5.607,-1.609 -11.445,-4.376 2.539,4.645 5.431,9.355 8.013,12.14 l 0.25,0.27 0.196,0.309 c 0.115,0.182 2.842,4.51 4.946,9.867 3.145,8.007 3.298,14.229 0.456,18.493 -3.024,4.536 -8.226,7.137 -14.274,7.137 -2.778,0 -5.547,-0.562 -7.971,-1.565 1.024,4.584 6.175,10.46 10.745,15.673 1.317,1.503 2.68,3.057 3.917,4.55 4.59,5.533 9.099,12.599 11.184,15.986 h 4.859" style="fill:#000000;fill-opacity:1;fill-rule:nonzero;stroke:none" id="path102" />
        </g>
        <g id="g104" transform="translate(211,123)">
          <path d="m 0,0 52.76,58.667 c 0,0 -4.093,5.333 -1.76,10 2.333,4.666 6.924,4.333 6.924,4.333 0,0 0.75,0.667 4.079,-2 l 55.183,63.377" style="fill:none;stroke:#000000;stroke-width:4;stroke-linecap:round;stroke-linejoin:miter;stroke-miterlimit:10;stroke-dasharray:none;stroke-opacity:1" id="path106" />
        </g>
        <g id="g108" transform="translate(231,105.333)">
          <path d="m 0,0 57,52 c 0,0 4.333,-3.333 9.667,0 5.333,3.334 2,12.5 2,12.5 l 62.452,55.384" style="fill:none;stroke:#000000;stroke-width:4;stroke-linecap:round;stroke-linejoin:miter;stroke-miterlimit:10;stroke-dasharray:none;stroke-opacity:1" id="path110" />
        </g>
        <g id="g112" transform="translate(273.0034,194)">
          <path d="M 0,0 26.663,-24.167" style="fill:none;stroke:#000000;stroke-width:4;stroke-linecap:round;stroke-linejoin:miter;stroke-miterlimit:10;stroke-dasharray:none;stroke-opacity:1" id="path114" />
        </g>
        <g id="g116" transform="translate(263.7598,181.667)">
          <path d="M 0,0 24.24,-24.334" style="fill:none;stroke:#000000;stroke-width:4;stroke-linecap:round;stroke-linejoin:miter;stroke-miterlimit:10;stroke-dasharray:none;stroke-opacity:1" id="path118" />
        </g>
        <g id="g120" transform="translate(438.751,390.3481)">
          <path d="m 0,0 12.249,12.652 c 0,0 -5.437,4.333 -4.053,8.666 1.386,4.334 5.72,5.667 9.386,4.334 0,0 17.334,23.333 17.667,47 l -7,7 10.667,10.666 98.666,-97.666 -12,-11.05 -5,5.716 c 0,0 -19,-1 -43.666,-16.333 0,0 1.666,-4.274 -0.667,-8.137 -2.333,-3.863 -8,-3.196 -12.667,-1.196 L 50.925,-49.206" style="fill:none;stroke:#000000;stroke-width:4;stroke-linecap:round;stroke-linejoin:miter;stroke-miterlimit:10;stroke-dasharray:none;stroke-opacity:1" id="path122" />
        </g>
        <g id="g124" transform="translate(474,463)">
          <path d="M 0,0 85.333,-85.333" style="fill:none;stroke:#000000;stroke-width:4;stroke-linecap:round;stroke-linejoin:miter;stroke-miterlimit:10;stroke-dasharray:none;stroke-opacity:1" id="path126" />
        </g>
        <g id="g128" transform="translate(488.5557,469.8882)">
          <path d="m 0,0 c 0,0 -3.889,18.445 2.777,28.445 6.667,10 18.667,19.333 18.667,19.333 l 9.667,8 c 0,0 8,-12.666 8,-18.666" style="fill:none;stroke:#000000;stroke-width:4;stroke-linecap:round;stroke-linejoin:miter;stroke-miterlimit:10;stroke-dasharray:none;stroke-opacity:1" id="path130" />
        </g>
        <g id="g132" transform="translate(509.5762,449.0806)">
          <path d="m 0,0 c 0,0 0.091,25.919 2.091,34.253 2,8.333 3.666,22.333 28.333,28.333 0,0 6.333,3 15,2.333 0,0 7,1.334 10,3.667 3,2.333 7.319,10.867 11.333,9" style="fill:none;stroke:#000000;stroke-width:4;stroke-linecap:round;stroke-linejoin:miter;stroke-miterlimit:10;stroke-dasharray:none;stroke-opacity:1" id="path134" />
        </g>
        <g id="g136" transform="translate(523.8984,434.9038)">
          <path d="m 0,0 c 0,0 -3.436,19.43 0,31.43 3.435,12 10.83,22.666 20.466,26.666 9.636,4 29.636,8.667 33.969,13.334 4.334,4.666 7,4.333 11,13" style="fill:none;stroke:#000000;stroke-width:4;stroke-linecap:round;stroke-linejoin:miter;stroke-miterlimit:10;stroke-dasharray:none;stroke-opacity:1" id="path138" />
        </g>
        <g id="g140" transform="translate(582.667,518.6665)">
          <path d="M 0,0 C 0,0 0.666,-5.333 -4.334,-12.333" style="fill:none;stroke:#000000;stroke-width:4;stroke-linecap:round;stroke-linejoin:miter;stroke-miterlimit:10;stroke-dasharray:none;stroke-opacity:1" id="path142" />
        </g>
        <g id="g144" transform="translate(597.708,523.542)">
          <path d="m 0,0 c 0,0 -0.734,-24.974 -11.041,-35.536 -6.771,-6.938 -11.334,-12.672 -22,-16.006 -10.667,-3.333 -29.847,-7.179 -37.924,-36.923 0,0 3.59,1.257 12.257,1.923 8.667,0.667 27,0.334 37.333,2.334 10.334,2 20,11.333 21.667,13.666 1.667,2.334 14.822,22.679 9.245,35.006" style="fill:none;stroke:#000000;stroke-width:4;stroke-linecap:round;stroke-linejoin:miter;stroke-miterlimit:10;stroke-dasharray:none;stroke-opacity:1" id="path146" />
        </g>
        <g id="g148" transform="translate(531.1055,427.7695)">
          <path d="m 0,0 c 0,0 11.6,1.564 24.747,-2.103 13.148,-3.667 24.481,-8.333 36.481,-4 12,4.333 29.667,18.667 35,32.667" style="fill:none;stroke:#000000;stroke-width:4;stroke-linecap:round;stroke-linejoin:miter;stroke-miterlimit:10;stroke-dasharray:none;stroke-opacity:1" id="path150" />
        </g>
        <g id="g152" transform="translate(604.998,494.4316)">
          <path d="m 0,0 c 0,0 -8.938,-21.432 -22.302,-27.765 -13.363,-6.333 -14.363,-3 -19.029,-8 0,0 19.333,2.667 23.666,4.333 4.334,1.667 20.12,10.036 18.667,24.667" style="fill:none;stroke:#000000;stroke-width:4;stroke-linecap:round;stroke-linejoin:miter;stroke-miterlimit:10;stroke-dasharray:none;stroke-opacity:1" id="path154" />
        </g>
        <g id="g156" transform="translate(574.667,518.6665)">
          <path d="m 0,0 c 0,0 -5.667,-9.333 -11,-12.333 -5.334,-3 -13.938,-6.667 -19.303,-13.334" style="fill:none;stroke:#000000;stroke-width:4;stroke-linecap:round;stroke-linejoin:miter;stroke-miterlimit:10;stroke-dasharray:none;stroke-opacity:1" id="path158" />
        </g>
        <g id="g160" transform="translate(623.6133,478.8096)">
          <path d="m 0,0 c 0,0 -3.385,-15.81 -14.999,-26.81 -11.614,-11 -19.591,-15.24 -38.281,-14.871" style="fill:none;stroke:#000000;stroke-width:4;stroke-linecap:round;stroke-linejoin:miter;stroke-miterlimit:10;stroke-dasharray:none;stroke-opacity:1" id="path162" />
        </g>
        <g id="g164" transform="translate(621.3057,443.937)">
          <path d="m 0,0 c 0,0 1.885,-13.58 -10.973,-21.271 -4.975,-2.976 -10,-3.901 -10,-3.901 0,0 4,-3.001 9.334,-1.05 5.333,1.951 0.532,-12.382 -9.567,-18.715 -10.1,-6.334 -26.538,-8.769 -33.985,-5.885" style="fill:none;stroke:#000000;stroke-width:4;stroke-linecap:round;stroke-linejoin:miter;stroke-miterlimit:10;stroke-dasharray:none;stroke-opacity:1" id="path166" />
        </g>
        <g id="g168" transform="translate(544.3643,414.645)">
          <path d="m 0,0 c 0,0 17.864,-4.979 21.75,-6.979 3.886,-2 16.219,-4.333 24.553,-2.333 8.333,2 12,4.274 12,4.274" style="fill:none;stroke:#000000;stroke-width:4;stroke-linecap:round;stroke-linejoin:miter;stroke-miterlimit:10;stroke-dasharray:none;stroke-opacity:1" id="path170" />
        </g>
        <g id="g172" transform="translate(504.2695,454.3335)">
          <path d="M 0,0 C 0,0 -3.603,14.667 -2.603,26.333 -1.603,38 8.063,47.667 9.73,52 c 1.667,4.333 5.667,19.333 5.667,19.333" style="fill:none;stroke:#000000;stroke-width:4;stroke-linecap:round;stroke-linejoin:miter;stroke-miterlimit:10;stroke-dasharray:none;stroke-opacity:1" id="path174" />
        </g>
        <g id="g176" transform="translate(513.667,522.542)">
          <path d="M 0,0 C 0,0 -18.37,29.46 -22,34.458" style="fill:none;stroke:#000000;stroke-width:4;stroke-linecap:round;stroke-linejoin:miter;stroke-miterlimit:10;stroke-dasharray:none;stroke-opacity:1" id="path178" />
        </g>
        <g id="g180" transform="translate(515.667,361.3335)">
          <path d="M 0,0 -59.334,54.667" style="fill:none;stroke:#000000;stroke-width:4;stroke-linecap:round;stroke-linejoin:miter;stroke-miterlimit:10;stroke-dasharray:none;stroke-opacity:1" id="path182" />
        </g>
        <g id="g184" transform="translate(502.333,352)">
          <path d="M 0,0 -51.333,51" style="fill:none;stroke:#000000;stroke-width:4;stroke-linecap:round;stroke-linejoin:miter;stroke-miterlimit:10;stroke-dasharray:none;stroke-opacity:1" id="path186" />
        </g>
        <g id="g188" transform="translate(466.9199,406.2461)">
          <path d="M 0,0 C 0,0 18.522,23.849 20.999,42.834" style="fill:none;stroke:#000000;stroke-width:4;stroke-linecap:round;stroke-linejoin:miter;stroke-miterlimit:10;stroke-dasharray:none;stroke-opacity:1" id="path190" />
        </g>
        <g id="g192" transform="translate(476.667,397.2661)">
          <path d="M 0,0 C 0,0 23.315,25.084 24.824,38.243" style="fill:none;stroke:#000000;stroke-width:4;stroke-linecap:round;stroke-linejoin:miter;stroke-miterlimit:10;stroke-dasharray:none;stroke-opacity:1" id="path194" />
        </g>
        <g id="g196" transform="translate(486,388.6665)">
          <path d="M 0,0 29.667,30.098" style="fill:none;stroke:#000000;stroke-width:4;stroke-linecap:round;stroke-linejoin:miter;stroke-miterlimit:10;stroke-dasharray:none;stroke-opacity:1" id="path198" />
        </g>
        <g id="g200" transform="translate(494.8262,380.5347)">
          <path d="M 0,0 C 0,0 33.409,24.896 38.458,23.181" style="fill:none;stroke:#000000;stroke-width:4;stroke-linecap:round;stroke-linejoin:miter;stroke-miterlimit:10;stroke-dasharray:none;stroke-opacity:1" id="path202" />
        </g>
        <g id="g204" transform="translate(505.2295,370.9497)">
          <path d="M 0,0 C 0,0 37.938,22.884 43.104,17.717" style="fill:none;stroke:#000000;stroke-width:4;stroke-linecap:round;stroke-linejoin:miter;stroke-miterlimit:10;stroke-dasharray:none;stroke-opacity:1" id="path206" />
        </g>
        <g id="g208" transform="translate(487.4277,484.3335)">
          <path d="m 0,0 c 0,0 -15.428,3.333 -22.428,8.667 -7,5.333 -16.608,9.901 -16.608,9.901" style="fill:none;stroke:#000000;stroke-width:4;stroke-linecap:round;stroke-linejoin:miter;stroke-miterlimit:10;stroke-dasharray:none;stroke-opacity:1" id="path210" />
        </g>
        <g id="g212" transform="translate(512.0137,519.3335)">
          <path d="M 0,0 C 0,0 -4.014,1.667 -20.347,0 -36.681,-1.667 -61.014,-13.5 -61.014,-13.5" style="fill:none;stroke:#000000;stroke-width:4;stroke-linecap:round;stroke-linejoin:miter;stroke-miterlimit:10;stroke-dasharray:none;stroke-opacity:1" id="path214" />
        </g>
        <g id="g216" transform="translate(496.1504,504.5347)">
          <path d="M 0,0 C 0,0 -22.998,-0.064 -28.24,-1.633" style="fill:none;stroke:#000000;stroke-width:4;stroke-linecap:round;stroke-linejoin:miter;stroke-miterlimit:10;stroke-dasharray:none;stroke-opacity:1" id="path218" />
        </g>
        <g id="g220" transform="translate(555,514)">
          <path d="M 0,0 C 0,0 -28.279,31.998 -47.458,39.667" style="fill:none;stroke:#000000;stroke-width:4;stroke-linecap:round;stroke-linejoin:miter;stroke-miterlimit:10;stroke-dasharray:none;stroke-opacity:1" id="path222" />
        </g>
        <g id="g224" transform="translate(570.542,377.6665)">
          <path d="M 0,0 C 0,0 5.287,-20.979 23.206,-26.156" style="fill:none;stroke:#000000;stroke-width:4;stroke-linecap:round;stroke-linejoin:miter;stroke-miterlimit:10;stroke-dasharray:none;stroke-opacity:1" id="path226" />
        </g>
        <g id="g228" transform="translate(627.333,327.3726)">
          <path d="M 0,0 C 0,0 -3.773,5.961 -3.72,11.961" style="fill:none;stroke:#000000;stroke-width:4;stroke-linecap:round;stroke-linejoin:miter;stroke-miterlimit:10;stroke-dasharray:none;stroke-opacity:1" id="path230" />
        </g>
        <g id="g232" transform="translate(623.6133,351.5103)">
          <path d="m 0,0 c 0,0 0.72,23.813 6.72,34.985 6,11.171 14.104,34.074 11.667,42.168" style="fill:none;stroke:#000000;stroke-width:4;stroke-linecap:round;stroke-linejoin:miter;stroke-miterlimit:10;stroke-dasharray:none;stroke-opacity:1" id="path234" />
        </g>
        <g id="g236" transform="translate(647.333,341.1421)">
          <path d="M 0,0 C 0,0 4.334,39.057 0,56.124" style="fill:none;stroke:#000000;stroke-width:4;stroke-linecap:round;stroke-linejoin:miter;stroke-miterlimit:10;stroke-dasharray:none;stroke-opacity:1" id="path238" />
        </g>
        <g id="g240" transform="translate(621.3809,352)">
          <path d="M 0,0 -32.048,32.5" style="fill:none;stroke:#000000;stroke-width:4;stroke-linecap:round;stroke-linejoin:miter;stroke-miterlimit:10;stroke-dasharray:none;stroke-opacity:1" id="path242" />
        </g>
        <g id="g244" transform="translate(628.333,381.5)">
          <path d="m 0,0 -4.72,15.766 c 0,0 -11.764,-5.099 -14.96,8.98" style="fill:none;stroke:#000000;stroke-width:4;stroke-linecap:round;stroke-linejoin:miter;stroke-miterlimit:10;stroke-dasharray:none;stroke-opacity:1" id="path246" />
        </g>
        <g id="g248" transform="translate(611.8486,416.3872)">
          <path d="m 0,0 c 0,0 7.818,6.476 15.484,2.377 7.667,-4.098 8.334,-8.626 7.334,-14.195 -1,-5.569 -4,-5.569 -4,-5.569 l 2.348,-7.088" style="fill:none;stroke:#000000;stroke-width:4;stroke-linecap:round;stroke-linejoin:miter;stroke-miterlimit:10;stroke-dasharray:none;stroke-opacity:1" id="path250" />
        </g>
        <g id="g252" transform="translate(627.333,418.7646)">
          <path d="M 0,0 -6.05,21.542" style="fill:none;stroke:#000000;stroke-width:4;stroke-linecap:round;stroke-linejoin:miter;stroke-miterlimit:10;stroke-dasharray:none;stroke-opacity:1" id="path254" />
        </g>
        <g id="g256" transform="translate(627.0488,377.5)">
          <path d="M 0,0 -11.936,20.054" style="fill:none;stroke:#000000;stroke-width:4;stroke-linecap:round;stroke-linejoin:miter;stroke-miterlimit:10;stroke-dasharray:none;stroke-opacity:1" id="path258" />
        </g>
        <g id="g260" transform="translate(625.4727,263.6406)">
          <path d="M 0,0 C 0,0 -11.913,-11.641 -13.359,-29.641" style="fill:none;stroke:#000000;stroke-width:4;stroke-linecap:round;stroke-linejoin:miter;stroke-miterlimit:10;stroke-dasharray:none;stroke-opacity:1" id="path262" />
        </g>
        <g id="g264" transform="translate(623.4385,179)">
          <path d="M 0,0 C 0,0 20.229,18.667 31.562,42" style="fill:none;stroke:#000000;stroke-width:4;stroke-linecap:round;stroke-linejoin:miter;stroke-miterlimit:10;stroke-dasharray:none;stroke-opacity:1" id="path266" />
        </g>
        <g id="g268" transform="translate(609.5303,197.5674)">
          <path d="m 0,0 c 0,0 -1.863,33.766 -9.863,46.433 -8,12.667 -10.334,22.436 -10.334,22.436" style="fill:none;stroke:#000000;stroke-width:4;stroke-linecap:round;stroke-linejoin:miter;stroke-miterlimit:10;stroke-dasharray:none;stroke-opacity:1" id="path270" />
        </g>
        <g id="g272" transform="translate(563.667,210)">
          <path d="m 0,0 c 0,0 1.416,16 6.875,24 5.458,8 11.219,29.539 15.339,33.437" style="fill:none;stroke:#000000;stroke-width:4;stroke-linecap:round;stroke-linejoin:miter;stroke-miterlimit:10;stroke-dasharray:none;stroke-opacity:1" id="path274" />
        </g>
        <g id="g276" transform="translate(607.7451,215)">
          <path d="m 0,0 c 0,0 7.017,9.667 13.636,13.333 0,0 -2.284,11.334 5.668,15.667 7.951,4.333 13.951,0 13.951,0 0,0 7.921,-3.232 4.627,-14.616" style="fill:none;stroke:#000000;stroke-width:4;stroke-linecap:round;stroke-linejoin:miter;stroke-miterlimit:10;stroke-dasharray:none;stroke-opacity:1" id="path278" />
        </g>
        <g id="g280" transform="translate(636.7988,245.666)">
          <path d="M 0,0 C 0,0 8.201,15.207 14.201,20.771" style="fill:none;stroke:#000000;stroke-width:4;stroke-linecap:round;stroke-linejoin:miter;stroke-miterlimit:10;stroke-dasharray:none;stroke-opacity:1" id="path282" />
        </g>
        <g id="g284" transform="translate(453.667,153)">
          <path d="M 0,0 -12.667,12.275 97,127 110,114.437 Z" style="fill:none;stroke:#000000;stroke-width:4;stroke-linecap:round;stroke-linejoin:miter;stroke-miterlimit:10;stroke-dasharray:none;stroke-opacity:1" id="path286" />
        </g>
        <g id="g288" transform="translate(476.667,202.5869)">
          <path d="M 0,0 -23.628,24.682" style="fill:none;stroke:#000000;stroke-width:4;stroke-linecap:round;stroke-linejoin:miter;stroke-miterlimit:10;stroke-dasharray:none;stroke-opacity:1" id="path290" />
        </g>
        <g id="g292" transform="translate(497.0713,223.9326)">
          <path d="M 0,0 -23.071,20.804" style="fill:none;stroke:#000000;stroke-width:4;stroke-linecap:round;stroke-linejoin:miter;stroke-miterlimit:10;stroke-dasharray:none;stroke-opacity:1" id="path294" />
        </g>
        <g id="g296" transform="translate(518.0947,245.9258)">
          <path d="M 0,0 -27.648,25.369" style="fill:none;stroke:#000000;stroke-width:4;stroke-linecap:round;stroke-linejoin:miter;stroke-miterlimit:10;stroke-dasharray:none;stroke-opacity:1" id="path298" />
        </g>
        <g id="g300" transform="translate(453.4854,118.6992)">
          <path d="m 0,0 c 0,0 13.848,14.301 32.515,17.968 18.667,3.666 32.742,7.666 36.371,11 3.629,3.333 7.962,4.333 7.296,0 -0.667,-4.334 -2,-7.334 -2,-7.334" style="fill:none;stroke:#000000;stroke-width:4;stroke-linecap:round;stroke-linejoin:miter;stroke-miterlimit:10;stroke-dasharray:none;stroke-opacity:1" id="path302" />
        </g>
        <g id="g304" transform="translate(529.7354,232.002)">
          <path d="m 0,0 c 0,0 10.598,-2.002 7.932,-12.669 0,0 11.333,-2 10.666,-15 0,0 10.334,-3 9.667,-15.666 0,0 9.357,-1.334 9.678,-13.667 0,0 9.989,-0.21 9.989,-12.271 0,0 9.426,-3.062 8.214,-14.062 0,0 10.398,-0.667 11.092,-10.334 0,0 6.919,6.334 18.14,1" style="fill:none;stroke:#000000;stroke-width:4;stroke-linecap:round;stroke-linejoin:miter;stroke-miterlimit:10;stroke-dasharray:none;stroke-opacity:1" id="path306" />
        </g>
        <g id="g308" transform="translate(490.4463,190.1885)">
          <path d="m 0,0 c 0,0 1.887,-7.188 10.387,-8.521 0,0 5.023,-11.667 17.261,-10.334 0,0 5.117,-13.21 14.011,-9.605 0,0 2.29,-9.061 12.259,-10.061 0,0 2.674,-9.667 11.488,-10 0,0 5.148,-12 14.481,-9 0,0 2.984,-10 12.159,-9.667 0,0 -3.159,-13.667 5.841,-19.667" style="fill:none;stroke:#000000;stroke-width:4;stroke-linecap:round;stroke-linejoin:miter;stroke-miterlimit:10;stroke-dasharray:none;stroke-opacity:1" id="path310" />
        </g>
        <g id="g312" transform="translate(553.1631,201.4766)">
          <path d="m 0,0 c 0,0 9.253,10.856 17.379,10.856 0,0 2.307,1.954 1.882,-10.856 0,0 0.274,-6.477 1.092,-13.144 0.817,-6.666 1.182,-11.41 0,-15.538" style="fill:none;stroke:#000000;stroke-width:4;stroke-linecap:round;stroke-linejoin:miter;stroke-miterlimit:10;stroke-dasharray:none;stroke-opacity:1" id="path314" />
        </g>
        <g id="g316" transform="translate(563.7178,197.5674)">
          <path d="M 0,0 -3.147,-9.766" style="fill:none;stroke:#000000;stroke-width:4;stroke-linecap:round;stroke-linejoin:miter;stroke-miterlimit:10;stroke-dasharray:none;stroke-opacity:1" id="path318" />
        </g>
        <g id="g320" transform="translate(585.8809,234)">
          <path d="m 0,0 c 0,0 1.786,-17 2.452,-25 0.667,-8 1.667,-18.667 1,-25.667 -0.666,-7 -3.899,-15.877 -1.616,-20.604" style="fill:none;stroke:#000000;stroke-width:4;stroke-linecap:round;stroke-linejoin:miter;stroke-miterlimit:10;stroke-dasharray:none;stroke-opacity:1" id="path322" />
        </g>
        <g id="g324" transform="translate(579.2197,162.0234)">
          <path d="m 0,0 c 0,0 15.394,0.1 17.754,0.705 0,0 6.724,25.939 14.875,38.939 8.151,13 29.484,24.401 29.484,24.401 0,0 23.294,17.512 25.667,23.599" style="fill:none;stroke:#000000;stroke-width:4;stroke-linecap:round;stroke-linejoin:miter;stroke-miterlimit:10;stroke-dasharray:none;stroke-opacity:1" id="path326" />
        </g>
        <g id="g328" transform="translate(616.667,144.667)">
          <path d="m 0,0 c 0,0 6.114,21.923 6.442,28.128 0,0 -22.162,-9.691 -26.135,-10.066" style="fill:none;stroke:#000000;stroke-width:4;stroke-linecap:round;stroke-linejoin:miter;stroke-miterlimit:10;stroke-dasharray:none;stroke-opacity:1" id="path330" />
        </g>
        <g id="g332" transform="translate(608.6533,157.333)">
          <path d="M 0,0 -13.198,-14.061" style="fill:none;stroke:#000000;stroke-width:4;stroke-linecap:round;stroke-linejoin:miter;stroke-miterlimit:10;stroke-dasharray:none;stroke-opacity:1" id="path334" />
        </g>
        <g id="g336" transform="translate(455.917,83.3525)">
          <path d="m 0,0 c 0,0 21.225,11.98 41.154,11.98 19.929,0 39.262,-5.99 39.262,-5.99 0,0 25,-3.676 28,-1.01" style="fill:none;stroke:#000000;stroke-width:4;stroke-linecap:round;stroke-linejoin:miter;stroke-miterlimit:10;stroke-dasharray:none;stroke-opacity:1" id="path338" />
        </g>
        <g id="g340" transform="translate(501.4912,95.333)">
          <path d="m 0,0 c 0,0 15.585,10 20.88,16.667 5.296,6.667 1.962,8.667 1.962,8.667 0,0 -8,8.333 3.334,17.666 0,0 8.242,3.92 15.288,-3.707 7.045,-7.626 4.44,-14.619 1.409,-17.289 -3.031,-2.67 -9.364,-3.67 -9.364,-3.67 0,0 -10.333,-17.311 -19.333,-19.822" style="fill:none;stroke:#000000;stroke-width:4;stroke-linecap:round;stroke-linejoin:miter;stroke-miterlimit:10;stroke-dasharray:none;stroke-opacity:1" id="path342" />
        </g>
        <g id="g344" transform="translate(241.0454,156.4092)">
          <path d="m 0,0 c 0,0 -22.592,8.935 -41.712,5.614 0,0 -0.167,-17.356 5,-23.69" style="fill:none;stroke:#000000;stroke-width:4;stroke-linecap:round;stroke-linejoin:miter;stroke-miterlimit:10;stroke-dasharray:none;stroke-opacity:1" id="path346" />
        </g>
        <g id="g348" transform="translate(246.0947,162.0234)">
          <path d="m 0,0 c 0,0 -5.845,36.227 2.905,46.977 0,0 18.01,0.5 25.88,-13" style="fill:none;stroke:#000000;stroke-width:4;stroke-linecap:round;stroke-linejoin:miter;stroke-miterlimit:10;stroke-dasharray:none;stroke-opacity:1" id="path350" />
        </g>
        <g id="g352" transform="translate(367.4854,120.9199)">
          <path d="m 0,0 c 0,0 -1.705,7.33 -24.97,11.58 -23.265,4.25 -39.765,10.773 -39.765,10.773 l -9.75,5.227 c 0,0 -0.75,-10 2,-12.5" style="fill:none;stroke:#000000;stroke-width:4;stroke-linecap:round;stroke-linejoin:miter;stroke-miterlimit:10;stroke-dasharray:none;stroke-opacity:1" id="path354" />
        </g>
        <g id="g356" transform="translate(374.0479,81.748)">
          <path d="m 0,0 c 0,0 -27.675,12.252 -45.862,10.002 -18.186,-2.25 -32.436,-1.75 -47.186,-3.5 -14.75,-1.75 -23,0.083 -23,0.083" style="fill:none;stroke:#000000;stroke-width:4;stroke-linecap:round;stroke-linejoin:miter;stroke-miterlimit:10;stroke-dasharray:none;stroke-opacity:1" id="path358" />
        </g>
        <g id="g360" transform="translate(255.75,209)">
          <path d="M 0,0 C 0,0 -10.255,39.052 -19.752,47.526" style="fill:none;stroke:#000000;stroke-width:4;stroke-linecap:round;stroke-linejoin:miter;stroke-miterlimit:10;stroke-dasharray:none;stroke-opacity:1" id="path362" />
        </g>
        <g id="g364" transform="translate(234.0425,158.7305)">
          <path d="m 0,0 -23.423,35.27 -2.369,3.567 -17.5,17.433 c 0,0 -17.25,-3.636 -19.75,8.932 -2.5,12.568 5.5,18.318 11,18.568 5.5,0.25 14.485,1.375 15,-16.432 l 12,-11.068" style="fill:none;stroke:#000000;stroke-width:4;stroke-linecap:round;stroke-linejoin:miter;stroke-miterlimit:10;stroke-dasharray:none;stroke-opacity:1" id="path366" />
        </g>
        <g id="g368" transform="translate(222.75,256.0508)">
          <path d="M 0,0 C 0,0 -16.5,-13.801 -11.75,-60.551" style="fill:none;stroke:#000000;stroke-width:4;stroke-linecap:round;stroke-linejoin:miter;stroke-miterlimit:10;stroke-dasharray:none;stroke-opacity:1" id="path370" />
        </g>
        <g id="g372" transform="translate(237.25,158.7305)">
          <path d="M 0,0 C 0,0 -15.75,50.688 -10.75,75.604" style="fill:none;stroke:#000000;stroke-width:4;stroke-linecap:round;stroke-linejoin:miter;stroke-miterlimit:10;stroke-dasharray:none;stroke-opacity:1" id="path374" />
        </g>
        <g id="g376" transform="translate(166.75,210.5)">
          <path d="M 0,0 C 0,0 25,-39.25 44.25,-46.5" style="fill:none;stroke:#000000;stroke-width:4;stroke-linecap:round;stroke-linejoin:miter;stroke-miterlimit:10;stroke-dasharray:none;stroke-opacity:1" id="path378" />
        </g>
        <g id="g380" transform="translate(154,239.333)">
          <path d="M 0,0 16.529,-9.833" style="fill:none;stroke:#000000;stroke-width:4;stroke-linecap:round;stroke-linejoin:miter;stroke-miterlimit:10;stroke-dasharray:none;stroke-opacity:1" id="path382" />
        </g>
        <g id="g384" transform="translate(169.5288,418.7646)">
          <path d="m 0,0 c 2.142,-10.055 1.078,-9.942 5.971,-26.597 2.967,-10.097 9.135,-19.871 12.715,-29.491 2.152,-5.784 3.368,-11.512 2.39,-17.221" style="fill:none;stroke:#000000;stroke-width:4;stroke-linecap:round;stroke-linejoin:miter;stroke-miterlimit:10;stroke-dasharray:none;stroke-opacity:1" id="path386" />
        </g>
        <g id="g388" transform="translate(246.75,433.9038)">
          <path d="M 0,0 C 0,0 -52.194,-38.024 -56.627,-77.493" style="fill:none;stroke:#000000;stroke-width:4;stroke-linecap:round;stroke-linejoin:miter;stroke-miterlimit:10;stroke-dasharray:none;stroke-opacity:1" id="path390" />
        </g>
        <g id="g392" transform="translate(255.75,423.5)">
          <path d="M 0,0 C 0,0 -2.36,-52.903 -31.93,-81.077" style="fill:none;stroke:#000000;stroke-width:4;stroke-linecap:round;stroke-linejoin:miter;stroke-miterlimit:10;stroke-dasharray:none;stroke-opacity:1" id="path394" />
        </g>
        <g id="g396" transform="translate(457.3311,93.8447)">
          <path d="m 0,0 c 0,0 6.949,12.655 27.684,21.655 20.735,9 31.652,18 31.652,18" style="fill:none;stroke:#000000;stroke-width:4;stroke-linecap:round;stroke-linejoin:miter;stroke-miterlimit:10;stroke-dasharray:none;stroke-opacity:1" id="path398" />
        </g>
        <g id="g400" transform="translate(510.125,142.3828)">
          <path d="M 0,0 C -0.383,-0.936 5.334,16.868 12.246,22.108" style="fill:none;stroke:#000000;stroke-width:4;stroke-linecap:round;stroke-linejoin:miter;stroke-miterlimit:10;stroke-dasharray:none;stroke-opacity:1" id="path402" />
        </g>
        <g id="g404" transform="translate(491.6104,95.333)">
          <path d="M 0,0 C 0,0 25.567,16.406 30.104,30.912" style="fill:none;stroke:#000000;stroke-width:4;stroke-linecap:round;stroke-linejoin:miter;stroke-miterlimit:10;stroke-dasharray:none;stroke-opacity:1" id="path406" />
        </g>
        <g id="g408" transform="translate(533.2842,139.3398)">
          <path d="M 0,0 7.216,13.097" style="fill:none;stroke:#000000;stroke-width:4;stroke-linecap:round;stroke-linejoin:miter;stroke-miterlimit:10;stroke-dasharray:none;stroke-opacity:1" id="path410" />
        </g>
        <g id="g412" transform="translate(522.3711,92.6963)">
          <path d="M 0,0 C 0,0 37.519,28.462 38.199,42.383" style="fill:none;stroke:#000000;stroke-width:4;stroke-linecap:round;stroke-linejoin:miter;stroke-miterlimit:10;stroke-dasharray:none;stroke-opacity:1" id="path414" />
        </g>
        <g id="g416" transform="translate(574.7734,125.7725)">
          <path d="M 0,0 C 0,0 -15.994,-16.605 -35.384,-20.439" style="fill:none;stroke:#000000;stroke-width:4;stroke-linecap:round;stroke-linejoin:miter;stroke-miterlimit:10;stroke-dasharray:none;stroke-opacity:1" id="path418" />
        </g>
        <g id="g420" transform="translate(459.5,70)">
          <path d="M 0,0 C 0,0 43.471,-4.5 70.235,5.75" style="fill:none;stroke:#000000;stroke-width:4;stroke-linecap:round;stroke-linejoin:miter;stroke-miterlimit:10;stroke-dasharray:none;stroke-opacity:1" id="path422" />
        </g>
        <g id="g424" transform="translate(310.75,128.667)">
          <path d="m 0,0 c 0,0 17,-12.917 29.25,-19.167 12.25,-6.25 27.485,-19 27.485,-19" style="fill:none;stroke:#000000;stroke-width:4;stroke-linecap:round;stroke-linejoin:miter;stroke-miterlimit:10;stroke-dasharray:none;stroke-opacity:1" id="path426" />
        </g>
        <g id="g428" transform="translate(282.5,75.75)">
          <path d="M 0,0 C 0,0 73,-15.467 86,-6.733" style="fill:none;stroke:#000000;stroke-width:4;stroke-linecap:round;stroke-linejoin:miter;stroke-miterlimit:10;stroke-dasharray:none;stroke-opacity:1" id="path430" />
        </g>
        <g id="g432" transform="translate(374.0479,29.0488)">
          <path d="m 0,0 c 0,0 2.452,14.201 2.452,16.201 0,2 -7,8.5 -7,8.5" style="fill:none;stroke:#000000;stroke-width:4;stroke-linecap:round;stroke-linejoin:miter;stroke-miterlimit:10;stroke-dasharray:none;stroke-opacity:1" id="path434" />
        </g>
        <g id="g436" transform="translate(377.25,57)">
          <path d="M 0,0 -19.583,-8.667" style="fill:none;stroke:#000000;stroke-width:4;stroke-linecap:round;stroke-linejoin:miter;stroke-miterlimit:10;stroke-dasharray:none;stroke-opacity:1" id="path438" />
        </g>
        <g id="g440" transform="translate(429.4785,71.0469)">
          <path d="M 0,0 13.785,-7.547" style="fill:none;stroke:#000000;stroke-width:4;stroke-linecap:round;stroke-linejoin:miter;stroke-miterlimit:10;stroke-dasharray:none;stroke-opacity:1" id="path442" />
        </g>
        <g id="g444" transform="translate(465.667,56)">
          <path d="M 0,0 -18.72,6.25" style="fill:none;stroke:#000000;stroke-width:4;stroke-linecap:round;stroke-linejoin:miter;stroke-miterlimit:10;stroke-dasharray:none;stroke-opacity:1" id="path446" />
        </g>
        <g id="g448" transform="translate(445.6152,30.5068)">
          <path d="m 0,0 c 0,0 0.615,7.41 0,11.826 -0.615,4.417 2.135,9.75 5.385,10.834 3.25,1.083 4.04,4.739 14.379,1.583" style="fill:none;stroke:#000000;stroke-width:4;stroke-linecap:round;stroke-linejoin:miter;stroke-miterlimit:10;stroke-dasharray:none;stroke-opacity:1" id="path450" />
        </g>
        <g id="g452" transform="translate(310.75,90.5)">
          <path d="M 0,0 C -28.5,3.5 -52.75,39.167 -52.75,39.167 H -64.876" style="fill:none;stroke:#000000;stroke-width:4;stroke-linecap:round;stroke-linejoin:miter;stroke-miterlimit:10;stroke-dasharray:none;stroke-opacity:1" id="path454" />
        </g>
        <g id="g456" transform="translate(284.375,92.6963)">
          <path d="M 0,0 C 0,0 -36.127,21.238 -38.501,23.896" style="fill:none;stroke:#000000;stroke-width:4;stroke-linecap:round;stroke-linejoin:miter;stroke-miterlimit:10;stroke-dasharray:none;stroke-opacity:1" id="path458" />
        </g>
        <g id="g460" transform="translate(303.75,118.6992)">
          <path d="M 0,0 C 0,0 21.769,-22.661 32.759,-26.805" style="fill:none;stroke:#000000;stroke-width:4;stroke-linecap:round;stroke-linejoin:miter;stroke-miterlimit:10;stroke-dasharray:none;stroke-opacity:1" id="path462" />
        </g>
        <g id="g464" transform="translate(169,327)">
          <path d="M 0,0 C 0,0 -8.721,47.746 -6.736,66.873" style="fill:none;stroke:#000000;stroke-width:4;stroke-linecap:round;stroke-linejoin:miter;stroke-miterlimit:10;stroke-dasharray:none;stroke-opacity:1" id="path466" />
        </g>
        <g id="g468" transform="translate(215.6699,404.5693)">
          <path d="M 0,0 C 0,0 10.958,41.434 4.519,56.183" style="fill:none;stroke:#000000;stroke-width:4;stroke-linecap:round;stroke-linejoin:miter;stroke-miterlimit:10;stroke-dasharray:none;stroke-opacity:1" id="path470" />
        </g>
        <g id="g472" transform="translate(260.4531,480.6665)">
          <path d="M 0,0 C 0,0 34.963,14.083 55.88,81.333" style="fill:none;stroke:#000000;stroke-width:4;stroke-linecap:round;stroke-linejoin:miter;stroke-miterlimit:10;stroke-dasharray:none;stroke-opacity:1" id="path474" />
        </g>
        <g id="g476" transform="translate(355,505.8335)">
          <path d="M 0,0 C -25,-31.748 -73.712,-44.067 -73.712,-44.067" style="fill:none;stroke:#000000;stroke-width:4;stroke-linecap:round;stroke-linejoin:miter;stroke-miterlimit:10;stroke-dasharray:none;stroke-opacity:1" id="path478" />
        </g>
        <g id="g480" transform="translate(294.5342,514)">
          <path d="m 0,0 c 0,0 23.216,2.25 43.716,-1 0,0 15.679,-3.333 18.214,-7.167" style="fill:none;stroke:#000000;stroke-width:4;stroke-linecap:round;stroke-linejoin:miter;stroke-miterlimit:10;stroke-dasharray:none;stroke-opacity:1" id="path482" />
        </g>
        <g id="g484" transform="translate(241.0454,498.5684)">
          <path d="M 0,0 C 0,0 23.625,28.224 45.29,41.203" style="fill:none;stroke:#000000;stroke-width:4;stroke-linecap:round;stroke-linejoin:miter;stroke-miterlimit:10;stroke-dasharray:none;stroke-opacity:1" id="path486" />
        </g>
        <g id="g488" transform="translate(266.8652,484.3335)">
          <path d="M 0,0 C 0,0 57.007,16.221 61.321,18.568" style="fill:none;stroke:#000000;stroke-width:4;stroke-linecap:round;stroke-linejoin:miter;stroke-miterlimit:10;stroke-dasharray:none;stroke-opacity:1" id="path490" />
        </g>
        <g id="g492" transform="translate(202.2856,346.5737)">
          <path d="M 0,0 C 0,0 26.049,50.064 31.757,57.996" style="fill:none;stroke:#000000;stroke-width:4;stroke-linecap:round;stroke-linejoin:miter;stroke-miterlimit:10;stroke-dasharray:none;stroke-opacity:1" id="path494" />
        </g>
        <g id="g496" transform="translate(379.5,533.8335)">
          <path d="M 0,0 C 0,0 -7.749,-4.41 -10,-5.247" style="fill:none;stroke:#000000;stroke-width:4;stroke-linecap:round;stroke-linejoin:miter;stroke-miterlimit:10;stroke-dasharray:none;stroke-opacity:1" id="path498" />
        </g>
        <g id="g500" transform="translate(322.0024,514.561)">
          <path d="M 0,0 C 0,0 34.408,7.606 38.578,10.147" style="fill:none;stroke:#000000;stroke-width:4;stroke-linecap:round;stroke-linejoin:miter;stroke-miterlimit:10;stroke-dasharray:none;stroke-opacity:1" id="path502" />
        </g>
        <g id="g504" transform="translate(301.4092,525.6665)">
          <path d="M 0,0 C 0,0 44.369,23.021 68.091,25.583" style="fill:none;stroke:#000000;stroke-width:4;stroke-linecap:round;stroke-linejoin:miter;stroke-miterlimit:10;stroke-dasharray:none;stroke-opacity:1" id="path506" />
        </g>
        <g id="g508" transform="translate(436.25,555)">
          <path d="M 0,0 C 0,0 42.408,-8.541 74.329,-27.521" style="fill:none;stroke:#000000;stroke-width:4;stroke-linecap:round;stroke-linejoin:miter;stroke-miterlimit:10;stroke-dasharray:none;stroke-opacity:1" id="path510" />
        </g>
        <g id="g512" transform="translate(451,527.5864)">
          <path d="M 0,0 C 0,0 15.833,-12.862 25.667,-11.599" style="fill:none;stroke:#000000;stroke-width:4;stroke-linecap:round;stroke-linejoin:miter;stroke-miterlimit:10;stroke-dasharray:none;stroke-opacity:1" id="path514" />
        </g>
        <g id="g516" transform="translate(182.9648,374.4746)">
          <path d="m 0,0 v 14.192 c 0,0 -10.239,10.392 -3.227,22.238 0,0 5.679,5.345 15.596,1.345 9.916,-4 6.952,-14.696 6.952,-14.696 0,0 -1.786,-4.201 -9.786,-8.127 L 8.491,-10.901" style="fill:none;stroke:#000000;stroke-width:4;stroke-linecap:round;stroke-linejoin:miter;stroke-miterlimit:10;stroke-dasharray:none;stroke-opacity:1" id="path518" />
        </g>
        <g id="g520" transform="translate(204.3335,464.25)">
          <path d="M 0,0 C 0,0 -7.356,-10.273 -9,-52" style="fill:none;stroke:#000000;stroke-width:4;stroke-linecap:round;stroke-linejoin:miter;stroke-miterlimit:10;stroke-dasharray:none;stroke-opacity:1" id="path522" />
        </g>
        <g id="g524" transform="translate(228.25,430.75)">
          <path d="M 0,0 3.135,13.187" style="fill:none;stroke:#000000;stroke-width:4;stroke-linecap:round;stroke-linejoin:miter;stroke-miterlimit:10;stroke-dasharray:none;stroke-opacity:1" id="path526" />
        </g>
        <g id="g528" transform="translate(162.2642,268.75)">
          <path d="M 0,0 C 0,0 13.354,-26.603 16.295,-27.051" style="fill:none;stroke:#000000;stroke-width:4;stroke-linecap:round;stroke-linejoin:miter;stroke-miterlimit:10;stroke-dasharray:none;stroke-opacity:1" id="path530" />
        </g>
        <g id="g532" transform="translate(211,225.2168)">
          <path d="M 0,0 C 0,0 -11.855,34.105 -20.053,40.944" style="fill:none;stroke:#000000;stroke-width:4;stroke-linecap:round;stroke-linejoin:miter;stroke-miterlimit:10;stroke-dasharray:none;stroke-opacity:1" id="path534" />
        </g>
        <g id="g536" transform="translate(185.2373,279.0469)">
          <path d="M 0,0 4.754,-6.559" style="fill:none;stroke:#000000;stroke-width:4;stroke-linecap:round;stroke-linejoin:miter;stroke-miterlimit:10;stroke-dasharray:none;stroke-opacity:1" id="path538" />
        </g>
        <g id="g540" transform="translate(204.3335,256.0508)">
          <path d="M 0,0 C 0,0 6.949,-7.048 5.808,-24.049" style="fill:none;stroke:#000000;stroke-width:4;stroke-linecap:round;stroke-linejoin:miter;stroke-miterlimit:10;stroke-dasharray:none;stroke-opacity:1" id="path542" />
        </g>
        <g id="g544" transform="translate(302,166.5)">
          <path d="M 0,0 C 0,0 13.966,-22.736 20.983,-29.618" style="fill:none;stroke:#000000;stroke-width:4;stroke-linecap:round;stroke-linejoin:miter;stroke-miterlimit:10;stroke-dasharray:none;stroke-opacity:1" id="path546" />
        </g>
        <g id="g548" transform="translate(307.75,90.5)">
          <path d="m 0,0 -14.843,17 c 0,0 -13.897,-0.725 -17.027,6.388 C -35,30.5 -37.75,38.5 -28.5,43 c 0,0 18,9.796 21.75,-7.728 0,0 2.583,-6.166 -1.333,-10.219 0,0 6.833,-19.515 22.333,-23.658" style="fill:none;stroke:#000000;stroke-width:4;stroke-linecap:round;stroke-linejoin:miter;stroke-miterlimit:10;stroke-dasharray:none;stroke-opacity:1" id="path550" />
        </g>
        <g id="g552" transform="translate(212.5,150.3027)">
          <path d="M 0,0 C 0,0 8.89,-13.543 11.32,-13.048" style="fill:none;stroke:#000000;stroke-width:4;stroke-linecap:round;stroke-linejoin:miter;stroke-miterlimit:10;stroke-dasharray:none;stroke-opacity:1" id="path554" />
        </g>
        <g id="g556" transform="translate(254.75,190.1885)">
          <path d="M 0,0 C 0.75,-0.438 5.281,-13.668 5.281,-13.668 L 6.75,-56.109" style="fill:none;stroke:#000000;stroke-width:4;stroke-linecap:round;stroke-linejoin:miter;stroke-miterlimit:10;stroke-dasharray:none;stroke-opacity:1" id="path558" />
        </g>
        <g id="g560" transform="translate(276.4111,146.7607)">
          <path d="M 0,0 6.641,-11.682" style="fill:none;stroke:#000000;stroke-width:4;stroke-linecap:round;stroke-linejoin:miter;stroke-miterlimit:10;stroke-dasharray:none;stroke-opacity:1" id="path562" />
        </g>
        <g id="g564" transform="translate(267.1069,177.5)">
          <path d="M 0,0 2.486,-36.117" style="fill:none;stroke:#000000;stroke-width:4;stroke-linecap:round;stroke-linejoin:miter;stroke-miterlimit:10;stroke-dasharray:none;stroke-opacity:1" id="path566" />
        </g>
        <g id="g568" transform="translate(236.8022,151.6904)">
          <path d="M 0,0 1.859,-39.367" style="fill:none;stroke:#000000;stroke-width:4;stroke-linecap:round;stroke-linejoin:miter;stroke-miterlimit:10;stroke-dasharray:none;stroke-opacity:1" id="path570" />
        </g>
        <g id="g572" transform="translate(223.2163,137.0068)">
          <path d="M 0,0 0.604,-37.164" style="fill:none;stroke:#000000;stroke-width:4;stroke-linecap:round;stroke-linejoin:miter;stroke-miterlimit:10;stroke-dasharray:none;stroke-opacity:1" id="path574" />
        </g>
        <g id="g576" transform="translate(215.6699,126.7725)">
          <path d="M 0,0 V -32.928" style="fill:none;stroke:#000000;stroke-width:4;stroke-linecap:round;stroke-linejoin:miter;stroke-miterlimit:10;stroke-dasharray:none;stroke-opacity:1" id="path578" />
        </g>
        <g id="g580" transform="translate(236.75,138.333)">
          <path d="M 0,0 H -11.23" style="fill:none;stroke:#000000;stroke-width:4;stroke-linecap:round;stroke-linejoin:miter;stroke-miterlimit:10;stroke-dasharray:none;stroke-opacity:1" id="path582" />
        </g>
        <g id="g584" transform="translate(260.5,153.4365)">
          <path d="M 0,0 -14.626,-0.437" style="fill:none;stroke:#000000;stroke-width:4;stroke-linecap:round;stroke-linejoin:miter;stroke-miterlimit:10;stroke-dasharray:none;stroke-opacity:1" id="path586" />
        </g>
        <g id="g588" transform="translate(259.0518,159.75)">
          <path d="M 0,0 -13.178,-0.309 V -40.848" style="fill:none;stroke:#000000;stroke-width:4;stroke-linecap:round;stroke-linejoin:miter;stroke-miterlimit:10;stroke-dasharray:none;stroke-opacity:1" id="path590" />
        </g>
        <g id="g592" transform="translate(199.3325,107.5)">
          <path d="M 0,0 H 14.485" style="fill:none;stroke:#000000;stroke-width:4;stroke-linecap:round;stroke-linejoin:miter;stroke-miterlimit:10;stroke-dasharray:none;stroke-opacity:1" id="path594" />
        </g>
        <g id="g596" transform="translate(203.3335,113.8877)">
          <path d="M 0,0 H 11.398" style="fill:none;stroke:#000000;stroke-width:4;stroke-linecap:round;stroke-linejoin:miter;stroke-miterlimit:10;stroke-dasharray:none;stroke-opacity:1" id="path598" />
        </g>
        <g id="g600" transform="translate(605.5,261.5)">
          <path d="M 0,0 C 0,0 10.068,-27.157 6.613,-40.5" style="fill:none;stroke:#000000;stroke-width:4;stroke-linecap:round;stroke-linejoin:miter;stroke-miterlimit:10;stroke-dasharray:none;stroke-opacity:1" id="path602" />
        </g>
        <g id="g604" transform="translate(502.333,181.917)">
          <path d="M 0,0 35.334,37.416" style="fill:none;stroke:#000000;stroke-width:4;stroke-linecap:round;stroke-linejoin:miter;stroke-miterlimit:10;stroke-dasharray:none;stroke-opacity:1" id="path606" />
        </g>
        <g id="g608" transform="translate(516.667,172.7949)">
          <path d="M 0,0 31.666,31.538" style="fill:none;stroke:#000000;stroke-width:4;stroke-linecap:round;stroke-linejoin:miter;stroke-miterlimit:10;stroke-dasharray:none;stroke-opacity:1" id="path610" />
        </g>
        <g id="g612" transform="translate(532.1055,161.75)">
          <path d="M 0,0 25.895,26.917" style="fill:none;stroke:#000000;stroke-width:4;stroke-linecap:round;stroke-linejoin:miter;stroke-miterlimit:10;stroke-dasharray:none;stroke-opacity:1" id="path614" />
        </g>
        <g id="g616" transform="translate(544.3643,151.667)">
          <path d="M 0,0 21.75,23.041" style="fill:none;stroke:#000000;stroke-width:4;stroke-linecap:round;stroke-linejoin:miter;stroke-miterlimit:10;stroke-dasharray:none;stroke-opacity:1" id="path618" />
        </g>
        <g id="g620" transform="translate(555.8525,141.667)">
          <path d="M 0,0 20.48,20.356" style="fill:none;stroke:#000000;stroke-width:4;stroke-linecap:round;stroke-linejoin:miter;stroke-miterlimit:10;stroke-dasharray:none;stroke-opacity:1" id="path622" />
        </g>
        <g id="g624" transform="translate(570.333,132.667)">
          <path d="M 0,0 15.548,16" style="fill:none;stroke:#000000;stroke-width:4;stroke-linecap:round;stroke-linejoin:miter;stroke-miterlimit:10;stroke-dasharray:none;stroke-opacity:1" id="path626" />
        </g>
        <g id="g628" transform="translate(582.1445,121.75)">
          <path d="M 0,0 13.311,14.479" style="fill:none;stroke:#000000;stroke-width:4;stroke-linecap:round;stroke-linejoin:miter;stroke-miterlimit:10;stroke-dasharray:none;stroke-opacity:1" id="path630" />
        </g>
        <g id="g632" transform="translate(444.9473,44.2568)">
          <path d="M 0,0 -9.576,7.743" style="fill:none;stroke:#000000;stroke-width:4;stroke-linecap:round;stroke-linejoin:miter;stroke-miterlimit:10;stroke-dasharray:none;stroke-opacity:1" id="path634" />
        </g>
        <g id="g636" transform="translate(223.8198,113.8877)">
          <path d="M 0,0 H 14.768" style="fill:none;stroke:#000000;stroke-width:4;stroke-linecap:round;stroke-linejoin:miter;stroke-miterlimit:10;stroke-dasharray:none;stroke-opacity:1" id="path638" />
        </g>
        <g id="g640" transform="translate(224.5181,107.167)">
          <path d="M 0,0 8.232,0.333" style="fill:none;stroke:#000000;stroke-width:4;stroke-linecap:round;stroke-linejoin:miter;stroke-miterlimit:10;stroke-dasharray:none;stroke-opacity:1" id="path642" />
        </g>
        <g id="g644" transform="translate(237.8423,129.667)">
          <path d="M 0,0 H -14.324" style="fill:none;stroke:#000000;stroke-width:4;stroke-linecap:round;stroke-linejoin:miter;stroke-miterlimit:10;stroke-dasharray:none;stroke-opacity:1" id="path646" />
        </g>
        <g id="g648" transform="translate(245.8735,138.333)">
          <path d="M 0,0 H 14.626" style="fill:none;stroke:#000000;stroke-width:4;stroke-linecap:round;stroke-linejoin:miter;stroke-miterlimit:10;stroke-dasharray:none;stroke-opacity:1" id="path650" />
        </g>
        <g id="g652" transform="translate(269.0835,154.25)">
          <path d="M 0,0 15.292,0.5" style="fill:none;stroke:#000000;stroke-width:4;stroke-linecap:round;stroke-linejoin:miter;stroke-miterlimit:10;stroke-dasharray:none;stroke-opacity:1" id="path654" />
        </g>
        <g id="g656" transform="translate(269.0835,160.083)">
          <path d="M 0,0 H 14.583" style="fill:none;stroke:#000000;stroke-width:4;stroke-linecap:round;stroke-linejoin:miter;stroke-miterlimit:10;stroke-dasharray:none;stroke-opacity:1" id="path658" />
        </g>
      </g>
    </g>
  </g>
</svg>
