<svg id="DAU_Logo" data-name="DAU Logo" xmlns="http://www.w3.org/2000/svg" width="127.31" height="33.112" viewBox="0 0 127.31 33.112">
  <path id="U" d="M-120.384,79.728c2.75,2.284,7.2,3.441,13.215,3.441,5.942,0,10.949-1.184,14.883-3.517l.019-.013a15.3,15.3,0,0,0,7.352-10l4.427-19.58H-91l-4.542,18.43a7.723,7.723,0,0,1-3.078,4.954l0,0,0,0c-1.52.968-3.811,1.459-6.813,1.459-3.087,0-5.218-.512-6.334-1.525-1.155-1.046-1.453-2.724-.909-5.131l0,0,0,0,4.48-18.183H-118.7l-4.478,19.813a11.407,11.407,0,0,0-.011,5.661,8.414,8.414,0,0,0,2.8,4.2" transform="translate(207.798 -50.057)" fill="#a6192e"/>
  <path id="A" d="M-127.971,50.057l-25.1,32.839h10.919l17.123-23.037.641-.863.288,1.035,4.082,14.651.186.668h-13.288l9.093,7.546h15.753l-9.151-32.839Z" transform="translate(190.332 -50.057)" fill="#a6192e"/>
  <path id="D" d="M-176.486,82.574h19.055a28.726,28.726,0,0,0,11.781-2.328,19.586,19.586,0,0,0,8.189-6.584,17.916,17.916,0,0,0,3.188-9.9,12.067,12.067,0,0,0-1.922-7.268,13.206,13.206,0,0,0-6.1-4.745,25.64,25.64,0,0,0-9.765-1.687h-21.881l4.7,3.8Zm23.7-24.337a9.086,9.086,0,0,1,5.882,1.673,5.687,5.687,0,0,1,1.98,4.846,10.445,10.445,0,0,1-2.989,7.29,10.508,10.508,0,0,1-7.763,2.86h-8.035l.164-.654,3.122-12.433-4.424-3.581Z" transform="translate(176.486 -50.057)" fill="#a6192e"/>
</svg>
